<svg width="43" height="20" viewBox="0 0 43 20" fill="none" xmlns="http://www.w3.org/2000/svg">
<path d="M0 19.725L3.325 16.65H13.325V20H0V19.725ZM0 -2.98023e-07H13.325V3.35H3.325L0 -2.98023e-07ZM0 8.35H3.325H13.325V11.675H3.325H0V8.35ZM28.8389 6.15C29.3639 7.35 29.6139 8.625 29.6139 10C29.6139 11.375 29.3639 12.65 28.8389 13.85C28.2889 15.075 27.5889 16.125 26.6889 17.05C25.7889 17.95 24.7139 18.675 23.4889 19.2C22.2889 19.725 20.9889 20 19.6139 20H12.9639L16.2889 16.65H19.6139C20.5389 16.65 21.4139 16.475 22.2139 16.15C23.0139 15.8 23.7389 15.325 24.3389 14.7C24.9389 14.075 25.4139 13.375 25.7639 12.575C26.1139 11.75 26.2889 10.9 26.2889 10C26.2889 9.1 26.1139 8.25 25.7639 7.425C25.4139 6.625 24.9389 5.925 24.3139 5.3C23.7139 4.7 22.9889 4.2 22.1889 3.85C21.3889 3.525 20.5139 3.35 19.6139 3.35H16.2889L12.9639 -2.98023e-07H19.6139C20.9889 -2.98023e-07 22.2639 0.274999 23.4889 0.8C24.6889 1.325 25.7639 2.05 26.6639 2.95C27.5889 3.875 28.2889 4.925 28.8389 6.15ZM41.5586 6.15C42.0836 7.35 42.3336 8.625 42.3336 10C42.3336 11.375 42.0836 12.65 41.5586 13.85C41.0086 15.075 40.3086 16.125 39.4086 17.05C38.5086 17.95 37.4336 18.675 36.2086 19.2C35.0086 19.725 33.7086 20 32.3336 20H25.6836L29.0086 16.65H32.3336C33.2586 16.65 34.1336 16.475 34.9336 16.15C35.7336 15.8 36.4586 15.325 37.0586 14.7C37.6586 14.075 38.1336 13.375 38.4836 12.575C38.8336 11.75 39.0086 10.9 39.0086 10C39.0086 9.1 38.8336 8.25 38.4836 7.425C38.1336 6.625 37.6586 5.925 37.0336 5.3C36.4336 4.7 35.7086 4.2 34.9086 3.85C34.1086 3.525 33.2336 3.35 32.3336 3.35H29.0086L25.6836 -2.98023e-07H32.3336C33.7086 -2.98023e-07 34.9836 0.274999 36.2086 0.8C37.4086 1.325 38.4836 2.05 39.3836 2.95C40.3086 3.875 41.0086 4.925 41.5586 6.15Z" fill="white"/>
</svg>
